<?xml version="1.0" encoding="UTF-8" standalone="no"?><!DOCTYPE svg PUBLIC "-//W3C//DTD SVG 1.0//EN"
	"http://www.w3.org/TR/2001/REC-SVG-20010904/DTD/svg10.dtd">
<svg
   xmlns:svg="http://www.w3.org/2000/svg"
   xmlns="http://www.w3.org/2000/svg"
   version="1.0"
   width="600.00006"
   height="600"
   id="svg3195">
  <defs
     id="defs3197" />
  <g
     transform="translate(-74.28567,-298.07647)"
     id="layer1">
    <g
       transform="translate(-160,277.14286)"
       id="g3191">
      <path
         d="M 534.28568,30.933609 C 694.36566,30.933671 824.28576,160.85361 824.28576,320.9336 C 824.28566,481.01363 694.36576,610.93361 534.28568,610.93361 C 374.2057,610.93363 244.28567,481.01361 244.28567,320.9336 C 244.28556,160.85367 374.2057,30.933609 534.28568,30.933609 z "
         style="fill:#ffffff;fill-opacity:1;stroke:#000000;stroke-width:20;stroke-miterlimit:4;stroke-dasharray:none;stroke-dashoffset:1.8;stroke-opacity:1"
         id="path2178" />
      <path
         d="M 567.6919,67.308609 L 567.6919,97.089859 C 605.1671,102.6317 639.65305,117.30527 668.78565,138.87111 L 689.8169,117.87111 C 655.0472,91.188811 613.2554,73.253589 567.6919,67.308609 z M 500.72315,67.402359 C 455.18605,73.3816 413.4354,91.354199 378.6919,118.02736 L 399.59815,139.02736 L 399.6919,139.02736 C 428.80891,117.44744 463.26145,102.6639 500.72315,97.089859 L 500.72315,67.402359 z M 515.53565,128.08986 L 515.53565,228.33986 C 503.39095,230.79162 492.0391,235.52308 482.0669,242.15236 L 411.16065,171.27736 L 384.6294,197.80861 L 455.59815,268.77736 C 448.98685,278.7368 444.17055,290.06015 441.72315,302.18361 L 341.4419,302.18361 L 341.4419,339.68361 L 441.72315,339.68361 C 444.17004,351.80131 448.99105,363.04035 455.59815,372.99611 L 384.6294,443.99611 L 411.16065,470.52736 L 482.0669,399.62111 C 492.0391,406.25039 503.39095,411.04437 515.53565,413.49611 L 515.53565,513.77736 L 553.03565,513.77736 L 553.03565,413.49611 C 565.19195,411.04203 576.4626,406.16652 586.4419,399.52736 L 657.41065,470.52736 L 683.9419,443.99611 L 612.97315,372.99611 C 619.57774,363.04206 624.433,351.79847 626.8794,339.68361 L 727.1294,339.68361 L 727.1294,302.18361 L 626.8794,302.18361 C 624.43241,290.06283 619.58215,278.73518 612.97315,268.77736 L 683.9419,197.80861 L 657.41065,171.27736 L 586.4419,242.24611 C 576.4627,235.60696 565.19195,230.79394 553.03565,228.33986 L 553.03565,128.08986 L 515.53565,128.08986 z M 737.1919,165.24611 L 716.1919,186.24611 C 737.81301,215.39105 752.5559,249.95496 758.1294,287.46486 L 787.91065,287.46486 C 781.93176,241.87503 763.9279,200.01985 737.1919,165.24611 z M 331.28565,165.40236 C 304.60445,200.14259 286.63355,241.92686 280.66065,287.46486 L 310.47315,287.46486 C 316.03975,250.01561 330.7425,215.54909 352.3169,186.43361 L 331.28565,165.40236 z M 280.66065,354.40236 C 286.61655,399.93391 304.55695,441.71604 331.22315,476.46486 L 352.22315,455.43361 C 330.67295,426.32216 316.02425,391.84614 310.47315,354.40236 L 280.66065,354.40236 z M 758.1294,354.40236 C 752.55298,391.88781 737.8034,426.38134 716.1919,455.52736 L 737.1919,476.52736 C 763.90071,441.76582 781.92425,399.96518 787.91065,354.40236 L 758.1294,354.40236 z M 399.59815,502.83986 L 378.59815,523.83986 C 413.35095,550.55967 455.16525,568.56887 500.72315,574.55861 L 500.72315,544.74611 C 463.24505,539.16325 428.72175,524.44514 399.59815,502.83986 z M 668.78565,502.90236 C 639.64326,524.48891 605.1826,539.29126 567.6919,544.83986 L 567.6919,574.55861 C 613.26,568.60749 655.0471,550.61511 689.8169,523.93361 L 668.8794,502.90236 L 668.78565,502.90236 z "
         style="fill:#000000;fill-opacity:1;stroke:none;stroke-width:3;stroke-miterlimit:4;stroke-dasharray:none;stroke-dashoffset:1.8;stroke-opacity:1"
         id="path2176" />
    </g>
  </g>
</svg>
